<svg id="Layer_1" data-name="Layer 1" xmlns="http://www.w3.org/2000/svg" viewBox="0 0 883.93 172.28"><defs><style>.cls-1{fill:#59b210;}.cls-2{fill:#404040;}</style></defs><polygon class="cls-1" points="116.51 0 0 0 0 25.21 42.78 25.21 42.78 133.7 73.73 133.7 73.73 25.21 116.51 25.21 116.51 0"/><path class="cls-1" d="M214.85,44.35Q202.06,33,178.18,33A90.42,90.42,0,0,0,154,36.23a64.58,64.58,0,0,0-20.15,9.17l10.7,20.82a42.68,42.68,0,0,1,13.46-7,51.85,51.85,0,0,1,16.14-2.58q11.85,0,17.76,5.25t5.93,15H174.17q-22.53,0-33.33,8.22t-10.79,22.53a28.88,28.88,0,0,0,4.58,16,30.67,30.67,0,0,0,13.28,11.08q8.68,4,20.53,4,22.92,0,31.33-14.33v12.8h27.88V78.63Q227.65,55.71,214.85,44.35Zm-17,60.45a19.39,19.39,0,0,1-8.41,10.41,25.92,25.92,0,0,1-13.56,3.53q-7.83,0-12.32-3.34a10.72,10.72,0,0,1-4.49-9.07q0-12,18.34-12h20.44Z" transform="translate(-18.32 -3.57)"/><path class="cls-1" d="M275.59,48.07V34.51H247.13V137.27h29.8V88.76q0-14.33,7.26-21.49t20.05-7.16c1.15,0,3.37.12,6.69.38V33A53.66,53.66,0,0,0,290,36.8,33.16,33.16,0,0,0,275.59,48.07Z" transform="translate(-18.32 -3.57)"/><path class="cls-1" d="M398,47.69Q386.38,33,364,33a54.6,54.6,0,0,0-25.88,6.21,47.35,47.35,0,0,0-18.63,17.48q-6.87,11.27-6.87,26t6.87,26a47.35,47.35,0,0,0,18.63,17.48A54.48,54.48,0,0,0,364,132.3q20.81,0,32.47-12.79v4.39q0,14.13-7.36,21.11t-22.82,7a65.43,65.43,0,0,1-19.87-3.15,49,49,0,0,1-16.42-8.5l-11.84,21.39q8.78,6.87,22.15,10.5a107.46,107.46,0,0,0,28.27,3.63q28.26,0,43-13.75t14.71-42V34.51H398Zm-8.69,53.19q-7.54,7-19.38,7t-19.48-7q-7.65-7-7.64-18.24t7.64-18.24q7.63-7,19.48-7t19.38,7q7.55,7,7.55,18.24T389.33,100.88Z" transform="translate(-18.32 -3.57)"/><path class="cls-1" d="M524.66,44.35Q511.85,33,488,33a90.48,90.48,0,0,0-24.16,3.25,64.58,64.58,0,0,0-20.15,9.17l10.7,20.82a42.68,42.68,0,0,1,13.46-7A51.89,51.89,0,0,1,484,56.67q11.85,0,17.77,5.25t5.92,15H484q-22.53,0-33.33,8.22t-10.79,22.53a28.81,28.81,0,0,0,4.59,16,30.64,30.64,0,0,0,13.27,11.08q8.69,4,20.53,4,22.92,0,31.33-14.33v12.8h27.88V78.63Q537.45,55.71,524.66,44.35Zm-17,60.45a19.39,19.39,0,0,1-8.41,10.41,25.89,25.89,0,0,1-13.56,3.53q-7.83,0-12.32-3.34a10.72,10.72,0,0,1-4.49-9.07q0-12,18.34-12h20.44Z" transform="translate(-18.32 -3.57)"/><path class="cls-1" d="M603.16,115.11q-6.12,0-9.46-3.53t-3.34-10V59.72H616V36.8H590.36v-25h-29.8v25H544.71V59.72h15.85v42.22q0,18.14,10,27.5T599,138.8a54.74,54.74,0,0,0,13.47-1.63,30.54,30.54,0,0,0,10.79-4.87l-8-21A19.12,19.12,0,0,1,603.16,115.11Z" transform="translate(-18.32 -3.57)"/><path class="cls-2" d="M683.85,99.87a97.59,97.59,0,0,0-12.7-3.8,93,93,0,0,1-9.65-2.65,16.57,16.57,0,0,1-6-3.5,7.65,7.65,0,0,1-2.4-5.85,9.5,9.5,0,0,1,4.25-8q4.25-3.1,12.75-3.1a34.94,34.94,0,0,1,9.8,1.45,36.2,36.2,0,0,1,9.4,4.25l3.3-8a32.57,32.57,0,0,0-10.3-4.6,47,47,0,0,0-12.2-1.6q-8.89,0-14.9,2.7a20.28,20.28,0,0,0-9,7.2,18,18,0,0,0-2.95,10.1q0,6.7,3.45,10.65a21.17,21.17,0,0,0,8.3,5.85,100.14,100.14,0,0,0,12.75,3.8q6.3,1.5,9.75,2.7a15.74,15.74,0,0,1,5.8,3.45,7.72,7.72,0,0,1,2.35,5.85,9.09,9.09,0,0,1-4.3,7.85q-4.31,3-13,2.95a37.67,37.67,0,0,1-12.85-2.25,30.64,30.64,0,0,1-10.25-5.85l-3.7,7.8a31.27,31.27,0,0,0,11.55,6.35,48,48,0,0,0,15.25,2.45,37.61,37.61,0,0,0,15-2.65,20.12,20.12,0,0,0,9.1-7.2,17.86,17.86,0,0,0,3-10q0-6.6-3.45-10.5A21.41,21.41,0,0,0,683.85,99.87Z" transform="translate(-18.32 -3.57)"/><path class="cls-2" d="M724.15,127.77a8,8,0,0,1-6.15-2.3q-2.14-2.3-2.15-6.6V90.17h15.2v-7.9h-15.2V70.67h-9.6v11.6h-9v7.9h9v29.1q0,8,4.4,12.3t12.4,4.3a21.85,21.85,0,0,0,6.4-1,14.25,14.25,0,0,0,5.2-2.75l-3-6.9A11.56,11.56,0,0,1,724.15,127.77Z" transform="translate(-18.32 -3.57)"/><path class="cls-2" d="M777.4,85.22a30.85,30.85,0,0,0-28.35,0,25.05,25.05,0,0,0-9.85,9.6,29.18,29.18,0,0,0,0,27.9,25.38,25.38,0,0,0,9.85,9.65,30.45,30.45,0,0,0,28.35,0,25.45,25.45,0,0,0,9.8-9.65,29.18,29.18,0,0,0,0-27.9A25.12,25.12,0,0,0,777.4,85.22Zm1.35,33.3a16.61,16.61,0,0,1-6.35,6.6,19,19,0,0,1-18.3,0,17,17,0,0,1-6.4-6.6,21.4,21.4,0,0,1,0-19.5,16.6,16.6,0,0,1,6.4-6.55,19.35,19.35,0,0,1,18.3,0A16.22,16.22,0,0,1,778.75,99a21.82,21.82,0,0,1,0,19.5Z" transform="translate(-18.32 -3.57)"/><path class="cls-2" d="M809.35,91.17v-8.9h-9.2v53h9.6v-26.4q0-8.59,4.45-13.25T826.45,91a18.14,18.14,0,0,1,2.2.1v-9.3a26.83,26.83,0,0,0-11.9,2.4A16.31,16.31,0,0,0,809.35,91.17Z" transform="translate(-18.32 -3.57)"/><path class="cls-2" d="M871.3,85.22a26.54,26.54,0,0,0-13.55-3.45,27,27,0,0,0-13.65,3.45,24.69,24.69,0,0,0-9.5,9.65,28.1,28.1,0,0,0-3.45,13.9,27.62,27.62,0,0,0,3.55,14,24.55,24.55,0,0,0,10,9.65,33.75,33.75,0,0,0,26.85,1.25,23.3,23.3,0,0,0,8.95-6.4l-5.3-6.2q-5.81,6.41-15.3,6.4a20.09,20.09,0,0,1-13.05-4.25A16.63,16.63,0,0,1,840.75,112h43a28.51,28.51,0,0,0,.2-2.9,29.44,29.44,0,0,0-3.35-14.2A24.27,24.27,0,0,0,871.3,85.22Zm-30.55,19.85a16.92,16.92,0,0,1,5.45-11,17.9,17.9,0,0,1,23.1.05,17.06,17.06,0,0,1,5.45,10.95Z" transform="translate(-18.32 -3.57)"/><path class="cls-2" d="M900.35,124.07a6.39,6.39,0,0,0-4.7-1.9,6.62,6.62,0,0,0-4.8,2,6.48,6.48,0,0,0-2,4.85,6.75,6.75,0,0,0,6.8,6.9,6.35,6.35,0,0,0,4.65-2,7.26,7.26,0,0,0,.05-9.85Z" transform="translate(-18.32 -3.57)"/></svg>